<svg version="1" xmlns="http://www.w3.org/2000/svg" width="933.333" height="933.333" viewBox="0 0 700.000000 700.000000"><path d="M250.7 87.6c-.1.1-4.2.5-9.2.8-67.1 4.7-133.4 38.3-177.7 90.1-8.4 9.7-8.7 10.1-14.3 18C22.6 234 6 277.5 1.2 323c-.9 8.6-.8 49 .1 56 9.3 69.1 38 123.7 88.8 169.1 5.8 5.2 7.8 6.7 17.9 14 22.7 16.2 43.1 26.9 68.2 35.7 8.6 3.1 28.6 8.6 34.3 9.5 1.7.3 5.9 1 9.3 1.7 7 1.2 9.4 1.5 22.2 2.6 11.1 1 289 1 300 0 15.7-1.4 37.9-7.1 51.5-13.1 2.2-1 4.2-1.9 4.5-2 1.6-.6 11-5.3 13.5-6.9 22.8-14.2 35.9-25.4 49.4-42.1 20.4-25 34.3-58 37.8-89.1 1.4-12.2.8-39.1-1.1-49.8-10.9-62.3-53-113.2-112.1-135.4-3.9-1.4-19.3-6-22.5-6.6-1.4-.3-3.6-.7-5-1-7.6-1.7-19.7-2.8-34.3-3.1-7.6-.1-13.9-.4-14-.6-.2-.2-1.6-3.8-3.1-7.9-7.2-19-23.9-48.4-37-65-30.8-39.2-71.7-69-117.1-85.5-8.4-3-25.5-8.2-30-9.1-1.1-.2-4.2-.8-7-1.4-2.7-.6-6.1-1.2-7.4-1.5-4.1-.8-17.3-2.5-23.6-3.1-6-.6-33.3-1.2-33.8-.8zm37.3 59.7c1.4.3 4.5.8 7 1.2 8.5 1.2 28.5 6.5 38 10 49.4 18.4 89.3 54.4 112 100.9 7.6 15.7 8.2 17.1 11.9 29.6 5.7 19 10 25.2 20.7 29.5 5.6 2.3 6.9 2.4 31.3 2.5 26.8.1 34.8.8 47.1 4 8 2.2 7.8 2.1 18.5 7 26.2 11.9 48.7 36.1 59.3 63.6 6.4 16.7 9.1 39 6.9 56.4-2.6 21-12 43.2-24.7 58.5-20.4 24.6-47.5 39.3-79 42.9-5.5.7-288.2.8-290.1.2-.8-.3-4.3-.7-7.9-1-18.8-1.5-42.6-8.2-63.5-18.1-44-20.7-80.1-57.4-99.5-101.5-12-27.1-17.2-51.4-17.4-80.5-.1-21.8.7-30 5-48.6 13.2-58.3 53.5-109.5 106.9-136.2 6.5-3.2 8.6-4.2 17-7.7 9.7-4 31.9-10.1 42-11.5 14.1-2 18.5-2.2 36.5-1.9 10.7.1 20.6.5 22 .7z"/></svg>